Egyptienne-3.ufo
<glyph name="four" format="2">
  <advance width="505"/>
  <unicode hex="0034"/>
  <note>
four
</note>
  <outline>
    <contour>
      <point x="402" y="699" type="curve"/>
      <point x="285" y="699" type="line"/>
      <point x="251" y="627"/>
      <point x="230" y="555"/>
      <point x="174" y="464" type="curve" smooth="yes"/>
      <point x="129" y="391"/>
      <point x="80" y="303"/>
      <point x="6" y="238" type="curve"/>
      <point x="6" y="160" type="line"/>
      <point x="295" y="160" type="line"/>
      <point x="295" y="68" type="line"/>
      <point x="197" y="68" type="line"/>
      <point x="197" y="0" type="line"/>
      <point x="498" y="0" type="line"/>
      <point x="498" y="68" type="line"/>
      <point x="407" y="68" type="line"/>
      <point x="407" y="160" type="line"/>
      <point x="497" y="160" type="line"/>
      <point x="494" y="174"/>
      <point x="487" y="190"/>
      <point x="487" y="201" type="curve" smooth="yes"/>
      <point x="487" y="238" type="line"/>
      <point x="405" y="238" type="line"/>
      <point x="400" y="543" type="line"/>
      <point x="375" y="543" type="line"/>
      <point x="366" y="518"/>
      <point x="359" y="489"/>
      <point x="349" y="466" type="curve" smooth="yes"/>
      <point x="340" y="446"/>
      <point x="317" y="410"/>
      <point x="295" y="400" type="curve"/>
      <point x="295" y="240" type="line"/>
      <point x="118" y="240" type="line"/>
      <point x="188" y="320"/>
      <point x="299" y="471"/>
      <point x="324" y="518" type="curve" smooth="yes"/>
      <point x="349" y="565"/>
      <point x="386" y="642"/>
    </contour>
  </outline>
</glyph>
<glyph name="six" format="2">
  <advance width="572"/>
  <unicode hex="0036"/>
  <note>
six
</note>
  <outline>
    <contour>
      <point x="370" y="489" type="curve"/>
      <point x="480" y="489" type="line"/>
      <point x="480" y="521"/>
      <point x="449" y="694"/>
      <point x="287" y="694" type="curve" smooth="yes"/>
      <point x="101" y="694"/>
      <point x="32" y="525"/>
      <point x="32" y="305" type="curve" smooth="yes"/>
      <point x="32" y="85"/>
      <point x="167" y="1"/>
      <point x="286" y="1" type="curve" smooth="yes"/>
      <point x="405" y="1"/>
      <point x="506" y="111"/>
      <point x="506" y="250" type="curve" smooth="yes"/>
      <point x="506" y="373"/>
      <point x="405" y="454"/>
      <point x="292" y="454" type="curve" smooth="yes"/>
      <point x="214" y="454"/>
      <point x="148" y="402"/>
      <point x="138" y="387" type="curve"/>
      <point x="129" y="468"/>
      <point x="171" y="619"/>
      <point x="254" y="619" type="curve" smooth="yes"/>
      <point x="341" y="619"/>
      <point x="370" y="537"/>
    </contour>
    <contour>
      <point x="272" y="372" type="curve"/>
      <point x="333" y="372"/>
      <point x="394" y="329"/>
      <point x="394" y="220" type="curve" smooth="yes"/>
      <point x="394" y="111"/>
      <point x="323" y="73"/>
      <point x="275" y="73" type="curve" smooth="yes"/>
      <point x="224" y="73"/>
      <point x="149" y="105"/>
      <point x="149" y="220" type="curve" smooth="yes"/>
      <point x="149" y="335"/>
      <point x="214" y="367"/>
    </contour>
  </outline>
</glyph>
<glyph name="eight" format="2">
  <advance width="572"/>
  <unicode hex="0038"/>
  <note>
eight
</note>
  <outline>
    <contour>
      <point x="269" y="689" type="curve" smooth="yes"/>
      <point x="437" y="689"/>
      <point x="511" y="599"/>
      <point x="514" y="533" type="curve" smooth="yes"/>
      <point x="517" y="460"/>
      <point x="458" y="392"/>
      <point x="373" y="361" type="curve"/>
      <point x="425" y="331"/>
      <point x="514" y="270"/>
      <point x="514" y="176" type="curve" smooth="yes"/>
      <point x="514" y="82"/>
      <point x="423" y="-1"/>
      <point x="269" y="-1" type="curve" smooth="yes"/>
      <point x="115" y="-1"/>
      <point x="39" y="105"/>
      <point x="39" y="176" type="curve" smooth="yes"/>
      <point x="39" y="258"/>
      <point x="106" y="322"/>
      <point x="186" y="342" type="curve"/>
      <point x="137" y="373"/>
      <point x="33" y="426"/>
      <point x="33" y="518" type="curve" smooth="yes"/>
      <point x="33" y="610"/>
      <point x="132" y="689"/>
    </contour>
    <contour>
      <point x="309" y="400" type="curve"/>
      <point x="361" y="433"/>
      <point x="398" y="488"/>
      <point x="398" y="529" type="curve" smooth="yes"/>
      <point x="398" y="570"/>
      <point x="376" y="620"/>
      <point x="274" y="620" type="curve" smooth="yes"/>
      <point x="172" y="620"/>
      <point x="153" y="576"/>
      <point x="153" y="529" type="curve" smooth="yes"/>
      <point x="153" y="482"/>
      <point x="252" y="439"/>
    </contour>
    <contour>
      <point x="248" y="305" type="curve"/>
      <point x="196" y="272"/>
      <point x="154" y="249"/>
      <point x="148" y="188" type="curve" smooth="yes"/>
      <point x="144" y="147"/>
      <point x="171" y="69"/>
      <point x="273" y="69" type="curve" smooth="yes"/>
      <point x="375" y="69"/>
      <point x="399" y="119"/>
      <point x="397" y="166" type="curve" smooth="yes"/>
      <point x="395" y="225"/>
      <point x="308" y="269"/>
    </contour>
  </outline>
</glyph>
<glyph name="B" format="2">
  <advance width="600"/>
  <unicode hex="0042"/>
  <note>
B
</note>
  <outline>
    <contour>
      <point x="345" y="700" type="curve" smooth="yes"/>
      <point x="20" y="700" type="line"/>
      <point x="20" y="630" type="line"/>
      <point x="125" y="630" type="line"/>
      <point x="125" y="70" type="line"/>
      <point x="20" y="70" type="line"/>
      <point x="20" y="0" type="line"/>
      <point x="345" y="0" type="line" smooth="yes"/>
      <point x="480" y="0"/>
      <point x="550" y="70"/>
      <point x="550" y="200" type="curve" smooth="yes"/>
      <point x="550" y="370"/>
      <point x="421" y="376"/>
      <point x="421" y="377" type="curve" smooth="yes"/>
      <point x="421" y="380"/>
      <point x="550" y="390"/>
      <point x="550" y="540" type="curve" smooth="yes"/>
      <point x="550" y="690"/>
      <point x="377" y="700"/>
    </contour>
    <contour>
      <point x="220" y="70" type="line"/>
      <point x="220" y="323" type="line"/>
      <point x="361" y="323" type="line" smooth="yes"/>
      <point x="420" y="323"/>
      <point x="445" y="250"/>
      <point x="445" y="204" type="curve" smooth="yes"/>
      <point x="445" y="145"/>
      <point x="420" y="70"/>
      <point x="363" y="70" type="curve" smooth="yes"/>
    </contour>
    <contour>
      <point x="220" y="435" type="line"/>
      <point x="220" y="630" type="line"/>
      <point x="361" y="630" type="line" smooth="yes"/>
      <point x="420" y="630"/>
      <point x="445" y="580"/>
      <point x="445" y="535" type="curve" smooth="yes"/>
      <point x="445" y="490"/>
      <point x="420" y="435"/>
      <point x="363" y="435" type="curve" smooth="yes"/>
    </contour>
  </outline>
</glyph>
<glyph name="H" format="2">
  <advance width="669"/>
  <unicode hex="0048"/>
  <note>
H
</note>
  <outline>
    <contour>
      <point x="99" y="70" type="line"/>
      <point x="24" y="70" type="line"/>
      <point x="24" y="0" type="line"/>
      <point x="289" y="0" type="line"/>
      <point x="289" y="70" type="line"/>
      <point x="214" y="70" type="line"/>
      <point x="214" y="340" type="line"/>
      <point x="429" y="340" type="line"/>
      <point x="429" y="71" type="line"/>
      <point x="354" y="71" type="line"/>
      <point x="354" y="0" type="line"/>
      <point x="619" y="0" type="line"/>
      <point x="619" y="70" type="line"/>
      <point x="544" y="70" type="line"/>
      <point x="544" y="630" type="line"/>
      <point x="619" y="630" type="line"/>
      <point x="619" y="700" type="line"/>
      <point x="354" y="700" type="line"/>
      <point x="354" y="630" type="line"/>
      <point x="429" y="630" type="line"/>
      <point x="429" y="405" type="line"/>
      <point x="214" y="405" type="line"/>
      <point x="214" y="630" type="line"/>
      <point x="289" y="630" type="line"/>
      <point x="289" y="700" type="line"/>
      <point x="24" y="700" type="line"/>
      <point x="24" y="630" type="line"/>
      <point x="99" y="630" type="line"/>
    </contour>
  </outline>
</glyph>
<glyph name="K" format="2">
  <advance width="744"/>
  <unicode hex="004B"/>
  <note>
K
</note>
  <outline>
    <contour>
      <point x="363" y="630" type="line"/>
      <point x="363" y="700" type="line"/>
      <point x="78" y="700" type="line"/>
      <point x="78" y="630" type="line"/>
      <point x="168" y="630" type="line"/>
      <point x="168" y="70" type="line"/>
      <point x="78" y="70" type="line"/>
      <point x="78" y="0" type="line"/>
      <point x="369" y="0" type="line"/>
      <point x="369" y="70" type="line"/>
      <point x="277" y="70" type="line"/>
      <point x="277" y="271" type="line"/>
      <point x="342" y="345" type="line"/>
      <point x="488" y="70" type="line"/>
      <point x="400" y="70" type="line"/>
      <point x="400" y="0" type="line"/>
      <point x="688" y="0" type="line"/>
      <point x="688" y="70" type="line"/>
      <point x="598" y="70" type="line"/>
      <point x="413" y="410" type="line"/>
      <point x="603" y="630" type="line"/>
      <point x="694" y="630" type="line"/>
      <point x="694" y="700" type="line"/>
      <point x="413" y="700" type="line"/>
      <point x="413" y="630" type="line"/>
      <point x="503" y="630" type="line"/>
      <point x="277" y="385" type="line"/>
      <point x="277" y="630" type="line"/>
    </contour>
  </outline>
</glyph>
<glyph name="L" format="2">
  <advance width="638"/>
  <unicode hex="004C"/>
  <note>
L
</note>
  <outline>
    <contour>
      <point x="323" y="630" type="line"/>
      <point x="323" y="700" type="line"/>
      <point x="33" y="700" type="line"/>
      <point x="33" y="630" type="line"/>
      <point x="123" y="630" type="line"/>
      <point x="123" y="76" type="line"/>
      <point x="33" y="75" type="line"/>
      <point x="33" y="0" type="line"/>
      <point x="588" y="0" type="line"/>
      <point x="588" y="275" type="line"/>
      <point x="513" y="275" type="line"/>
      <point x="513" y="75" type="line"/>
      <point x="233" y="76" type="line"/>
      <point x="233" y="630" type="line"/>
    </contour>
  </outline>
</glyph>
<glyph name="N" format="2">
  <advance width="804"/>
  <unicode hex="004E"/>
  <note>
N
</note>
  <outline>
    <contour>
      <point x="569" y="217" type="line"/>
      <point x="319" y="700" type="line"/>
      <point x="55" y="700" type="line"/>
      <point x="55" y="628" type="line"/>
      <point x="154" y="628" type="line"/>
      <point x="154" y="74" type="line"/>
      <point x="54" y="74" type="line"/>
      <point x="54" y="0" type="line"/>
      <point x="354" y="0" type="line"/>
      <point x="354" y="74" type="line"/>
      <point x="249" y="74" type="line"/>
      <point x="249" y="592" type="line"/>
      <point x="554" y="0" type="line"/>
      <point x="654" y="0" type="line"/>
      <point x="654" y="628" type="line"/>
      <point x="754" y="628" type="line"/>
      <point x="754" y="700" type="line"/>
      <point x="459" y="700" type="line"/>
      <point x="459" y="628" type="line"/>
      <point x="569" y="628" type="line"/>
    </contour>
  </outline>
</glyph>
<glyph name="P" format="2">
  <advance width="663"/>
  <unicode hex="0050"/>
  <note>
P
</note>
  <outline>
    <contour>
      <point x="421" y="630" type="curve" smooth="yes"/>
      <point x="221" y="630" type="line"/>
      <point x="221" y="380" type="line"/>
      <point x="421" y="380" type="line" smooth="yes"/>
      <point x="461" y="380"/>
      <point x="506" y="435"/>
      <point x="506" y="505" type="curve" smooth="yes"/>
      <point x="506" y="560"/>
      <point x="461" y="630"/>
    </contour>
    <contour>
      <point x="126" y="630" type="line"/>
      <point x="11" y="630" type="line"/>
      <point x="11" y="700" type="line"/>
      <point x="441" y="700" type="line" smooth="yes"/>
      <point x="496" y="700"/>
      <point x="581" y="617"/>
      <point x="581" y="505" type="curve" smooth="yes"/>
      <point x="581" y="378"/>
      <point x="496" y="300"/>
      <point x="441" y="300" type="curve" smooth="yes"/>
      <point x="221" y="300" type="line"/>
      <point x="221" y="70" type="line"/>
      <point x="336" y="70" type="line"/>
      <point x="336" y="0" type="line"/>
      <point x="11" y="0" type="line"/>
      <point x="11" y="70" type="line"/>
      <point x="126" y="70" type="line"/>
    </contour>
  </outline>
</glyph>
<glyph name="Q" format="2">
  <advance width="598"/>
  <unicode hex="0051"/>
  <note>
Q
</note>
  <outline>
    <contour>
      <point x="256" y="0" type="curve" smooth="yes"/>
      <point x="49" y="0"/>
      <point x="1" y="260"/>
      <point x="1" y="371" type="curve" smooth="yes"/>
      <point x="1" y="486"/>
      <point x="50" y="700"/>
      <point x="256" y="700" type="curve" smooth="yes"/>
      <point x="462" y="700"/>
      <point x="511" y="487"/>
      <point x="511" y="372" type="curve" smooth="yes"/>
      <point x="511" y="300"/>
      <point x="491" y="166"/>
      <point x="421" y="80" type="curve" smooth="yes"/>
      <point x="404" y="59"/>
      <point x="384" y="41"/>
      <point x="360" y="27" type="curve"/>
      <point x="339" y="42"/>
      <point x="320" y="61"/>
      <point x="304" y="79" type="curve"/>
      <point x="327" y="89"/>
      <point x="346" y="107"/>
      <point x="362" y="133" type="curve"/>
      <point x="380" y="111"/>
      <point x="399" y="90"/>
      <point x="421" y="80" type="curve" smooth="yes"/>
      <point x="429" y="77"/>
      <point x="437" y="75"/>
      <point x="446" y="75" type="curve" smooth="yes"/>
      <point x="482" y="75"/>
      <point x="521" y="95"/>
      <point x="546" y="95" type="curve"/>
      <point x="547" y="24" type="line"/>
      <point x="515" y="6"/>
      <point x="519" y="0"/>
      <point x="433" y="0" type="curve" smooth="yes"/>
      <point x="408" y="0"/>
      <point x="383" y="11"/>
      <point x="360" y="27" type="curve"/>
      <point x="331" y="10"/>
      <point x="297" y="0"/>
    </contour>
    <contour>
      <point x="256" y="70" type="curve" smooth="yes"/>
      <point x="273" y="70"/>
      <point x="289" y="73"/>
      <point x="304" y="79" type="curve"/>
      <point x="278" y="107"/>
      <point x="258" y="134"/>
      <point x="248" y="141" type="curve" smooth="yes"/>
      <point x="232" y="153"/>
      <point x="195" y="152"/>
      <point x="191" y="152" type="curve"/>
      <point x="191" y="220" type="line"/>
      <point x="253" y="224"/>
      <point x="283" y="210"/>
      <point x="300" y="202" type="curve" smooth="yes"/>
      <point x="318" y="194"/>
      <point x="339" y="162"/>
      <point x="362" y="133" type="curve"/>
      <point x="391" y="182"/>
      <point x="406" y="259"/>
      <point x="406" y="371" type="curve" smooth="yes"/>
      <point x="406" y="580"/>
      <point x="351" y="630"/>
      <point x="256" y="630" type="curve" smooth="yes"/>
      <point x="156" y="630"/>
      <point x="106" y="580"/>
      <point x="106" y="371" type="curve" smooth="yes"/>
      <point x="106" y="160"/>
      <point x="156" y="70"/>
    </contour>
  </outline>
</glyph>
<glyph name="T" format="2">
  <advance width="605"/>
  <unicode hex="0054"/>
  <note>
T
</note>
  <outline>
    <contour>
      <point x="575" y="445" type="line"/>
      <point x="575" y="700" type="line"/>
      <point x="30" y="700" type="line"/>
      <point x="30" y="445" type="line"/>
      <point x="100" y="445" type="line"/>
      <point x="100" y="630" type="line"/>
      <point x="245" y="630" type="line"/>
      <point x="245" y="70" type="line"/>
      <point x="154" y="70" type="line"/>
      <point x="154" y="0" type="line"/>
      <point x="451" y="0" type="line"/>
      <point x="451" y="70" type="line"/>
      <point x="360" y="70" type="line"/>
      <point x="360" y="630" type="line"/>
      <point x="505" y="630" type="line"/>
      <point x="505" y="445" type="line"/>
    </contour>
  </outline>
</glyph>
<glyph name="U" format="2">
  <advance width="697"/>
  <unicode hex="0055"/>
  <note>
U
</note>
  <outline>
    <contour>
      <point x="231" y="630" type="line"/>
      <point x="322" y="630" type="line"/>
      <point x="322" y="700" type="line"/>
      <point x="25" y="699" type="line"/>
      <point x="25" y="629" type="line"/>
      <point x="116" y="630" type="line"/>
      <point x="116" y="175" type="line" smooth="yes"/>
      <point x="116" y="110"/>
      <point x="151" y="0"/>
      <point x="343" y="0" type="curve" smooth="yes"/>
      <point x="535" y="0"/>
      <point x="581" y="110"/>
      <point x="581" y="178" type="curve" smooth="yes"/>
      <point x="581" y="630" type="line"/>
      <point x="672" y="631" type="line"/>
      <point x="672" y="700" type="line"/>
      <point x="375" y="700" type="line"/>
      <point x="375" y="630" type="line"/>
      <point x="466" y="630" type="line"/>
      <point x="466" y="175" type="line" smooth="yes"/>
      <point x="466" y="110"/>
      <point x="409" y="90"/>
      <point x="343" y="90" type="curve" smooth="yes"/>
      <point x="277" y="90"/>
      <point x="231" y="110"/>
      <point x="231" y="175" type="curve" smooth="yes"/>
    </contour>
  </outline>
</glyph>
<glyph name="V" format="2">
  <advance width="689"/>
  <unicode hex="0056"/>
  <note>
V
</note>
  <outline>
    <contour>
      <point x="337" y="622" type="line"/>
      <point x="337" y="700" type="line"/>
      <point x="30" y="700" type="line"/>
      <point x="30" y="622" type="line"/>
      <point x="121" y="622" type="line"/>
      <point x="293" y="0" type="line"/>
      <point x="401" y="0" type="line"/>
      <point x="568" y="622" type="line"/>
      <point x="659" y="622" type="line"/>
      <point x="659" y="700" type="line"/>
      <point x="390" y="700" type="line"/>
      <point x="390" y="622" type="line"/>
      <point x="479" y="622" type="line"/>
      <point x="356" y="154" type="line"/>
      <point x="246" y="622" type="line"/>
    </contour>
  </outline>
</glyph>
<glyph name="a" format="2">
  <advance width="421"/>
  <unicode hex="0061"/>
  <note>
a
</note>
  <outline>
    <contour>
      <point x="102" y="332" type="curve"/>
      <point x="16" y="332" type="line"/>
      <point x="16" y="451"/>
      <point x="68" y="510"/>
      <point x="178" y="510" type="curve" smooth="yes"/>
      <point x="292" y="510"/>
      <point x="340" y="456"/>
      <point x="340" y="354" type="curve" smooth="yes"/>
      <point x="340" y="124" type="line" smooth="yes"/>
      <point x="340" y="72"/>
      <point x="350" y="46"/>
      <point x="370" y="46" type="curve" smooth="yes"/>
      <point x="381" y="46"/>
      <point x="395" y="48"/>
      <point x="410" y="52" type="curve"/>
      <point x="410" y="1" type="line"/>
      <point x="390" y="-6"/>
      <point x="367" y="-10"/>
      <point x="341" y="-10" type="curve" smooth="yes"/>
      <point x="294" y="-10"/>
      <point x="261" y="30"/>
      <point x="261" y="86" type="curve"/>
      <point x="284" y="58" type="line"/>
      <point x="258" y="14"/>
      <point x="216" y="-10"/>
      <point x="166" y="-10" type="curve" smooth="yes"/>
      <point x="66" y="-10"/>
      <point x="16" y="43"/>
      <point x="16" y="150" type="curve" smooth="yes"/>
      <point x="16" y="252"/>
      <point x="74" y="303"/>
      <point x="191" y="303" type="curve" smooth="yes"/>
      <point x="260" y="303" type="line"/>
      <point x="260" y="365" type="line" smooth="yes"/>
      <point x="260" y="428"/>
      <point x="231" y="450"/>
      <point x="179" y="450" type="curve" smooth="yes"/>
      <point x="123" y="450"/>
      <point x="97" y="415"/>
    </contour>
    <contour>
      <point x="260" y="188" type="curve" smooth="yes"/>
      <point x="260" y="243" type="line"/>
      <point x="214" y="243" type="line" smooth="yes"/>
      <point x="136" y="243"/>
      <point x="102" y="213"/>
      <point x="102" y="143" type="curve" smooth="yes"/>
      <point x="102" y="89"/>
      <point x="128" y="50"/>
      <point x="180" y="50" type="curve" smooth="yes"/>
      <point x="233" y="50"/>
      <point x="260" y="96"/>
    </contour>
  </outline>
</glyph>
<glyph name="d" format="2">
  <advance width="430"/>
  <unicode hex="0064"/>
  <note>
d
</note>
  <outline>
    <contour>
      <point x="280" y="644" type="line"/>
      <point x="280" y="428.00923" type="line"/>
      <point x="301" y="448" type="line"/>
      <point x="273" y="488"/>
      <point x="236" y="510"/>
      <point x="190" y="510" type="curve" smooth="yes"/>
      <point x="75" y="510"/>
      <point x="20" y="394"/>
      <point x="20" y="244" type="curve" smooth="yes"/>
      <point x="20" y="94"/>
      <point x="90" y="-10"/>
      <point x="181" y="-10" type="curve" smooth="yes"/>
      <point x="225" y="-10"/>
      <point x="270" y="16"/>
      <point x="302" y="63" type="curve"/>
      <point x="280" y="81" type="line"/>
      <point x="280" y="0" type="line"/>
      <point x="419" y="0" type="line"/>
      <point x="419" y="60" type="line"/>
      <point x="360" y="60" type="line"/>
      <point x="360" y="700" type="line"/>
      <point x="215" y="700" type="line"/>
      <point x="215" y="644" type="line"/>
    </contour>
    <contour>
      <point x="189" y="48" type="curve" smooth="yes"/>
      <point x="116" y="48"/>
      <point x="100" y="137"/>
      <point x="100" y="247" type="curve" smooth="yes"/>
      <point x="100" y="357"/>
      <point x="110" y="454"/>
      <point x="193" y="454" type="curve" smooth="yes"/>
      <point x="273" y="454"/>
      <point x="280" y="346"/>
      <point x="280" y="236" type="curve" smooth="yes"/>
      <point x="280" y="126"/>
      <point x="256" y="48"/>
    </contour>
  </outline>
</glyph>
<glyph name="i" format="2">
  <advance width="270"/>
  <unicode hex="0069"/>
  <note>
i
</note>
  <outline>
    <contour>
      <point x="175" y="56" type="line"/>
      <point x="175" y="500" type="line"/>
      <point x="30" y="500" type="line"/>
      <point x="30" y="444" type="line"/>
      <point x="95" y="444" type="line"/>
      <point x="95" y="56" type="line"/>
      <point x="30" y="56" type="line"/>
      <point x="30" y="0" type="line"/>
      <point x="240" y="0" type="line"/>
      <point x="240" y="56" type="line"/>
    </contour>
    <contour>
      <point x="175" y="614" type="line"/>
      <point x="175" y="700" type="line"/>
      <point x="91" y="700" type="line"/>
      <point x="91" y="614" type="line"/>
    </contour>
  </outline>
</glyph>
<glyph name="j" format="2">
  <advance width="205"/>
  <unicode hex="006A"/>
  <note>
j
</note>
  <outline>
    <contour>
      <point x="175" y="-124" type="curve" smooth="yes"/>
      <point x="175" y="500" type="line"/>
      <point x="30" y="500" type="line"/>
      <point x="30" y="444" type="line"/>
      <point x="95" y="444" type="line"/>
      <point x="95" y="-113" type="line" smooth="yes"/>
      <point x="95" y="-135"/>
      <point x="94" y="-166"/>
      <point x="77" y="-182" type="curve" smooth="yes"/>
      <point x="56" y="-201"/>
      <point x="40" y="-201"/>
      <point x="20" y="-200" type="curve"/>
      <point x="20" y="-260" type="line"/>
      <point x="38" y="-265"/>
      <point x="104" y="-271"/>
      <point x="145" y="-226" type="curve" smooth="yes"/>
      <point x="174" y="-195"/>
      <point x="175" y="-157"/>
    </contour>
    <contour>
      <point x="175" y="619" type="line"/>
      <point x="175" y="700" type="line"/>
      <point x="97" y="700" type="line"/>
      <point x="97" y="619" type="line"/>
    </contour>
  </outline>
</glyph>
<glyph name="k" format="2">
  <advance width="514"/>
  <unicode hex="006B"/>
  <note>
k
</note>
  <outline>
    <contour>
      <point x="175" y="302" type="line"/>
      <point x="175" y="700" type="line"/>
      <point x="30" y="700" type="line"/>
      <point x="30" y="644" type="line"/>
      <point x="95" y="644" type="line"/>
      <point x="95" y="56" type="line"/>
      <point x="30" y="56" type="line"/>
      <point x="30" y="0" type="line"/>
      <point x="240" y="0" type="line"/>
      <point x="240" y="56" type="line"/>
      <point x="175" y="56" type="line"/>
      <point x="175" y="207" type="line"/>
      <point x="232" y="269" type="line"/>
      <point x="343" y="56" type="line"/>
      <point x="278" y="56" type="line"/>
      <point x="278" y="0" type="line"/>
      <point x="489" y="0" type="line"/>
      <point x="489" y="56" type="line"/>
      <point x="424" y="56" type="line"/>
      <point x="285" y="324" type="line"/>
      <point x="388" y="444" type="line"/>
      <point x="453" y="444" type="line"/>
      <point x="453" y="500" type="line"/>
      <point x="236" y="500" type="line"/>
      <point x="236" y="444" type="line"/>
      <point x="301" y="444" type="line"/>
    </contour>
  </outline>
</glyph>
<glyph name="l" format="2">
  <advance width="270"/>
  <unicode hex="006C"/>
  <note>
l
</note>
  <outline>
    <contour>
      <point x="175" y="56" type="line"/>
      <point x="175" y="700" type="line"/>
      <point x="30" y="700" type="line"/>
      <point x="30" y="644" type="line"/>
      <point x="95" y="644" type="line"/>
      <point x="95" y="56" type="line"/>
      <point x="30" y="56" type="line"/>
      <point x="30" y="0" type="line"/>
      <point x="240" y="0" type="line"/>
      <point x="240" y="56" type="line"/>
    </contour>
  </outline>
</glyph>
<glyph name="n" format="2">
  <advance width="513"/>
  <unicode hex="006E"/>
  <note>
n
</note>
  <guideline x="-408"/>
  <outline>
    <contour>
      <point x="30" y="56" type="line"/>
      <point x="30" y="0" type="line"/>
      <point x="240" y="0" type="line"/>
      <point x="240" y="56" type="line"/>
      <point x="175" y="56" type="line"/>
      <point x="175" y="318" type="line" smooth="yes"/>
      <point x="175" y="388"/>
      <point x="209" y="447"/>
      <point x="279" y="447" type="curve" smooth="yes"/>
      <point x="325" y="447"/>
      <point x="343" y="399"/>
      <point x="343" y="360" type="curve" smooth="yes"/>
      <point x="343" y="56" type="line"/>
      <point x="278" y="56" type="line"/>
      <point x="278" y="0" type="line"/>
      <point x="488" y="0" type="line"/>
      <point x="488" y="56" type="line"/>
      <point x="423" y="56" type="line"/>
      <point x="423" y="364" type="line" smooth="yes"/>
      <point x="423" y="407"/>
      <point x="387" y="510"/>
      <point x="290" y="510" type="curve" smooth="yes"/>
      <point x="236" y="510"/>
      <point x="199" y="491"/>
      <point x="175" y="459" type="curve"/>
      <point x="175" y="499" type="line"/>
      <point x="30" y="499" type="line"/>
      <point x="30" y="441" type="line"/>
      <point x="95" y="441" type="line"/>
      <point x="95" y="56" type="line"/>
    </contour>
  </outline>
</glyph>
<glyph name="p" format="2">
  <advance width="455"/>
  <unicode hex="0070"/>
  <note>
p
</note>
  <guideline y="441"/>
  <guideline x="277"/>
  <guideline x="213"/>
  <outline>
    <contour>
      <point x="175" y="441" type="curve" smooth="yes"/>
      <point x="175" y="460" type="line"/>
      <point x="175" y="500" type="line"/>
      <point x="36" y="500" type="line"/>
      <point x="36" y="440" type="line"/>
      <point x="95" y="440" type="line"/>
      <point x="95" y="-194" type="line"/>
      <point x="30" y="-194" type="line"/>
      <point x="30" y="-250" type="line"/>
      <point x="240" y="-250" type="line"/>
      <point x="240" y="-194" type="line"/>
      <point x="175" y="-194" type="line"/>
      <point x="175" y="23" type="line" smooth="yes"/>
      <point x="175" y="504"/>
      <point x="175" y="-124"/>
    </contour>
    <contour>
      <point x="175" y="138" type="curve" smooth="yes"/>
      <point x="175" y="337" type="line" smooth="yes"/>
      <point x="175" y="802"/>
      <point x="175" y="-239"/>
    </contour>
    <contour>
      <point x="274" y="510" type="curve" smooth="yes"/>
      <point x="200" y="510"/>
      <point x="100" y="406"/>
      <point x="100" y="256" type="curve"/>
      <point x="100" y="106"/>
      <point x="150" y="-10"/>
      <point x="265" y="-10" type="curve" smooth="yes"/>
      <point x="380" y="-10"/>
      <point x="435" y="106"/>
      <point x="435" y="256" type="curve" smooth="yes"/>
      <point x="435" y="406"/>
      <point x="365" y="510"/>
    </contour>
    <contour>
      <point x="266" y="452" type="curve" smooth="yes"/>
      <point x="339" y="452"/>
      <point x="355" y="363"/>
      <point x="355" y="253" type="curve" smooth="yes"/>
      <point x="355" y="143"/>
      <point x="345" y="46"/>
      <point x="262" y="46" type="curve" smooth="yes"/>
      <point x="182" y="46"/>
      <point x="174" y="154"/>
      <point x="174" y="264" type="curve" smooth="yes"/>
      <point x="174" y="374"/>
      <point x="199" y="452"/>
    </contour>
  </outline>
</glyph>
<glyph name="q" format="2">
  <advance width="452"/>
  <unicode hex="0071"/>
  <note>
q
</note>
  <outline>
    <contour>
      <point x="280" y="441" type="line" smooth="yes"/>
      <point x="280" y="-124"/>
      <point x="280" y="504"/>
      <point x="280" y="23" type="curve" smooth="yes"/>
      <point x="280" y="-194" type="line"/>
      <point x="215" y="-194" type="line"/>
      <point x="215" y="-250" type="line"/>
      <point x="425" y="-250" type="line"/>
      <point x="425" y="-194" type="line"/>
      <point x="360" y="-194" type="line"/>
      <point x="360" y="440" type="line"/>
      <point x="419" y="440" type="line"/>
      <point x="419" y="500" type="line"/>
      <point x="280" y="500" type="line"/>
      <point x="280" y="460" type="line"/>
    </contour>
    <contour>
      <point x="280" y="138" type="line" smooth="yes"/>
      <point x="280" y="-239"/>
      <point x="280" y="802"/>
      <point x="280" y="337" type="curve" smooth="yes"/>
    </contour>
    <contour>
      <point x="181" y="510" type="curve" smooth="yes"/>
      <point x="90" y="510"/>
      <point x="20" y="406"/>
      <point x="20" y="256" type="curve" smooth="yes"/>
      <point x="20" y="106"/>
      <point x="75" y="-10"/>
      <point x="190" y="-10" type="curve" smooth="yes"/>
      <point x="305" y="-10"/>
      <point x="355" y="106"/>
      <point x="355" y="256" type="curve"/>
      <point x="355" y="406"/>
      <point x="255" y="510"/>
    </contour>
    <contour>
      <point x="189" y="452" type="curve" smooth="yes"/>
      <point x="256" y="452"/>
      <point x="281" y="374"/>
      <point x="281" y="264" type="curve" smooth="yes"/>
      <point x="281" y="154"/>
      <point x="273" y="46"/>
      <point x="193" y="46" type="curve" smooth="yes"/>
      <point x="110" y="46"/>
      <point x="100" y="143"/>
      <point x="100" y="253" type="curve" smooth="yes"/>
      <point x="100" y="363"/>
      <point x="116" y="452"/>
    </contour>
  </outline>
</glyph>
<glyph name="s" format="2">
  <advance width="390"/>
  <unicode hex="0073"/>
  <note>
s
</note>
  <guideline x="26"/>
  <outline>
    <contour>
      <point x="272" y="460" type="curve"/>
      <point x="272" y="500" type="line"/>
      <point x="328" y="500" type="line"/>
      <point x="328" y="320" type="line"/>
      <point x="272" y="320" type="line"/>
      <point x="273" y="352"/>
      <point x="255" y="449"/>
      <point x="166" y="449" type="curve" smooth="yes"/>
      <point x="103" y="449"/>
      <point x="84" y="396"/>
      <point x="86" y="363" type="curve" smooth="yes"/>
      <point x="92" y="283"/>
      <point x="263" y="283"/>
      <point x="313" y="244" type="curve" smooth="yes"/>
      <point x="359" y="208"/>
      <point x="371" y="156"/>
      <point x="361" y="103" type="curve" smooth="yes"/>
      <point x="351" y="51"/>
      <point x="312" y="-10"/>
      <point x="218" y="-10" type="curve" smooth="yes"/>
      <point x="148" y="-10"/>
      <point x="110" y="19"/>
      <point x="91" y="40" type="curve"/>
      <point x="91" y="0" type="line"/>
      <point x="36" y="0" type="line"/>
      <point x="36" y="180" type="line"/>
      <point x="91" y="180" type="line"/>
      <point x="91" y="119"/>
      <point x="140" y="59"/>
      <point x="219" y="59" type="curve" smooth="yes"/>
      <point x="286" y="59"/>
      <point x="305" y="119"/>
      <point x="293" y="164" type="curve" smooth="yes"/>
      <point x="273" y="237"/>
      <point x="96" y="207"/>
      <point x="43" y="295" type="curve" smooth="yes"/>
      <point x="-1" y="368"/>
      <point x="39" y="511"/>
      <point x="164" y="510" type="curve" smooth="yes"/>
      <point x="237" y="509"/>
      <point x="263" y="469"/>
    </contour>
  </outline>
</glyph>
<glyph name="z" format="2">
  <advance width="354"/>
  <unicode hex="007A"/>
  <note>
z
</note>
  <outline>
    <contour>
      <point x="234" y="436" type="line"/>
      <point x="78" y="436" type="line"/>
      <point x="78" y="301" type="line"/>
      <point x="15" y="301" type="line"/>
      <point x="15" y="499" type="line"/>
      <point x="323" y="499" type="line"/>
      <point x="323" y="436" type="line"/>
      <point x="104" y="67" type="line"/>
      <point x="260" y="67" type="line"/>
      <point x="260" y="184" type="line"/>
      <point x="323" y="184" type="line"/>
      <point x="323" y="0" type="line"/>
      <point x="15" y="0" type="line"/>
      <point x="15" y="63" type="line"/>
    </contour>
  </outline>
</glyph>
<glyph name="F" format="2">
  <advance width="578"/>
  <note>
F
</note>
  <outline>
    <contour>
      <point x="8" y="629" type="line"/>
      <point x="8" y="700" type="line"/>
      <point x="528" y="700" type="line"/>
      <point x="528" y="457" type="line"/>
      <point x="457" y="457" type="line"/>
      <point x="457" y="629" type="line"/>
      <point x="219" y="629" type="line"/>
      <point x="219" y="405" type="line"/>
      <point x="386" y="405" type="line"/>
      <point x="386" y="326" type="line"/>
      <point x="219" y="326" type="line"/>
      <point x="219" y="68" type="line"/>
      <point x="305" y="68" type="line"/>
      <point x="305" y="0" type="line"/>
      <point x="18" y="0" type="line"/>
      <point x="18" y="68" type="line"/>
      <point x="109" y="68" type="line"/>
      <point x="109" y="629" type="line"/>
    </contour>
  </outline>
</glyph>
